{"title":"Jungle Book (2016) HQ 1080p Blu-ray x264 DTS-HDMA 7.1 -DDR","uid":15690589,"size":13284359821,"categoryP":"video","categoryS":"hd___movies","magnet":"?xt=urn:btih:66977632a4880fc3c363f244062b22f095dbc450&amp;dn=Jungle+Book+%282016%29+HQ+1080p+Blu-ray+x264+DTS-HDMA+7.1+-DDR+&amp;tr=udp%3A%2F%2Ftracker.leechers-paradise.org%3A6969&amp;tr=udp%3A%2F%2Fzer0day.ch%3A1337&amp;tr=udp%3A%2F%2Fopen.demonii.com%3A1337&amp;tr=udp%3A%2F%2Ftracker.coppersurfer.tk%3A6969&amp;tr=udp%3A%2F%2Fexodus.desync.com%3A6969","seeders":3,"leechers":9,"uploader":"SaM","files":3,"time":1472399497,"description":"\nHQ 1080p Blu-ray Rip x264\r\n\r\nDTS HD Master Audio 7.1 English\r\nAC3 5.1 Hindi Blu-ray Audio\r\nHindi, Arabic, English &amp; impaired Subtitles \r\n \nhttp://extraimago.com/image/wjrO \nhttp://extraimago.com/image/wjrS \nhttp://extraimago.com/image/wjrq \nhttp://extraimago.com/image/wjry \nhttp://extraimago.com/image/wjrL \nhttp://extraimago.com/image/wjrQ \nhttp://extraimago.com/image/wjrR \nhttp://extraimago.com/image/wjrm \nhttp://extraimago.com/image/wjri \nhttp://extraimago.com/image/wjrl \nhttp://extraimago.com/image/wjrI \nhttp://extraimago.com/image/wjrd \nhttp://extraimago.com/image/wjrh \nhttp://extraimago.com/image/wjr3 \nhttp://extraimago.com/image/wjr9\r\n\r\nSpecs:\r\n\r\nSource: BD50 @ DDR\r\n\r\nFormat : Matroska\r\nFile size : 12.3 GiB\r\nDuration : 1 h 45 min\r\nOverall bit rate : 16.6 Mb/s\r\n\r\n\r\nVideo\r\nFormat : AVC\r\nFormat/Info : Advanced Video Codec\r\nFormat profile :   \r\nFormat settings, CABAC : Yes\r\nFormat settings, ReFrames : 4 frames\r\nCodec ID : V_MPEG4/ISO/AVC\r\nDuration : 1h 45mn\r\nBit rate : 10.6 Mbps\r\nWidth : 1 920 pixels\r\nHeight : 1 040 pixels\r\nDisplay aspect ratio : 1.85:1\r\nFrame rate mode : Constant\r\nFrame rate : 23.976 (24000/1001) fps\r\ncolor space : YUV\r\nChroma subsampling : 4:2:0\r\nBit depth : 8 bits\r\nScan type : Progressive\r\nBits/(Pixel*Frame) : 0.221\r\nStream size : 7.82 GiB (64%)\r\ncolor primaries : BT.709\r\nTransfer characteristics : BT.709\r\nMatrix coefficients : BT.709\r\n\r\nAudio #1\r\nID : 2\r\nFormat : DTS\r\nFormat/Info : Digital Theater Systems\r\nFormat profile : MA / Core\r\nMode : 16\r\nFormat settings, Endianness : Big\r\nCodec ID : A_DTS\r\nDuration : 1 h 45 min\r\nBit rate mode : Variable / Constant\r\nBit rate : 5 356 kb/s / 1 509 kb/s\r\nChannel(s) : 8 channels / 6 channels\r\nChannel positions : Front: L C R, Side: L R, Back: L R, LFE / Front: L C R, Side: L R, LFE\r\nSampling rate : 48.0 kHz\r\nFrame rate : 93.750 FPS (512 spf)\r\nBit depth : 24 bits\r\nCompression mode : Lossless / Lossy\r\nStream size : 3.96 GiB (32%)\r\nLanguage : English\r\nDefault : Yes\r\nForced : No\r\n\r\nAudio #2\r\nID : 3\r\nFormat : AC-3\r\nFormat/Info : Audio Coding 3\r\nMode extension : CM (complete main)\r\nFormat settings, Endianness : Big\r\nCodec ID : A_AC3\r\nDuration : 1 h 45 min\r\nBit rate mode : Constant\r\nBit rate : 640 kb/s\r\nChannel(s) : 6 channels\r\nChannel positions : Front: L C R, Side: L R, LFE\r\nSampling rate : 48.0 kHz\r\nFrame rate : 31.250 FPS (1536 spf)\r\nCompression mode : Lossy\r\nStream size : 485 MiB (4%)\r\nLanguage : Hindi\r\nDefault : No\r\nForced : No\r\n\r\nChapters : YES\r\n\r\nSAMPLE Included","torrent":{"xt":"urn:btih:66977632a4880fc3c363f244062b22f095dbc450","amp;dn":"Jungle+Book+%282016%29+HQ+1080p+Blu-ray+x264+DTS-HDMA+7.1+-DDR+","amp;tr":["udp%3A%2F%2Ftracker.leechers-paradise.org%3A6969","udp%3A%2F%2Fzer0day.ch%3A1337","udp%3A%2F%2Fopen.demonii.com%3A1337","udp%3A%2F%2Ftracker.coppersurfer.tk%3A6969","udp%3A%2F%2Fexodus.desync.com%3A6969"],"infoHash":"66977632a4880fc3c363f244062b22f095dbc450","infoHashBuffer":{"type":"Buffer","data":[102,151,118,50,164,136,15,195,195,99,242,68,6,43,34,240,149,219,196,80]},"announce":[],"urlList":[]}}